<svg id="logo" xmlns="http://www.w3.org/2000/svg" width="464.848" height="136.231" viewBox="0 0 464.848 136.231">
  <path id="Path_1" data-name="Path 1" d="M602.119,117.26a10.242,10.242,0,0,0-1.829-6.615c-1.364-2.066-2.046-4.3-1.018-6.76l.163-.56a5.838,5.838,0,0,0-1.312-5.968,4.6,4.6,0,0,1-1.208-4.438,7.7,7.7,0,0,0-1.018-6.269,5.547,5.547,0,0,1-.438-5.678,35.293,35.293,0,0,0,1.779-5.393,6.911,6.911,0,0,0-.151-4.313A5.173,5.173,0,0,1,597.035,68a33.055,33.055,0,0,0,.6-3.582,2.636,2.636,0,0,0-.874-2.372A3.321,3.321,0,0,1,595.7,59.01c.18-1.35.441-2.685-.264-3.985a1.719,1.719,0,0,1-.032-.865,13.956,13.956,0,0,0-1.338-6.653,7.607,7.607,0,0,1-.612-3.846,27.7,27.7,0,0,0-.345-7.7c-.485-2.725-1.249-5.4-1.823-8.107a10.8,10.8,0,0,1-.272-2.873c.119-1.936.351-3.869.609-5.8a22.959,22.959,0,0,1,1.884-6.717c.961-2.072,1.852-4.179,2.743-6.284a15.3,15.3,0,0,0,.784-2.348,3.421,3.421,0,0,0-.363-2.812c-.775-1.164-1.8-1.382-2.813-.406a12.014,12.014,0,0,0-2.165,2.725,28.847,28.847,0,0,1-3.857,5.471,6.271,6.271,0,0,0-1.568,4.136c-.119,3.08-.822,5.965-3.053,8.3a16.122,16.122,0,0,0-1.706,2.18,10.55,10.55,0,0,0-1.353,2.4,39.133,39.133,0,0,0-1.817,6.144c-.473,2.789-1.2,5.489-1.945,8.212a12.82,12.82,0,0,1-3.251,5.75,9.17,9.17,0,0,0-2.145,3.61c-.526,1.62-.984,3.257-1.422,4.9a14.247,14.247,0,0,0-.406,2.293c-.337,3.68-.6,7.367-.978,11.038a4.77,4.77,0,0,1-.615,2.627l-.258-.226a8.445,8.445,0,0,1-1.228-4.43,83.064,83.064,0,0,1-.569-11.041c.044-1.117,0-2.238.034-3.355a2.487,2.487,0,0,0-1.045-2.139c-.264-.206-.536-.4-.842-.624.055-.688.11-1.364.163-2.037A6.27,6.27,0,0,0,562.666,42a3.225,3.225,0,0,1-.539-1.9c.014-1.648.168-3.3.3-4.946a4.151,4.151,0,0,0-1.342-3.41,4.478,4.478,0,0,1-.734-.7c-.272-.43-.668-.926-.641-1.373a33.443,33.443,0,0,1,.534-4.76c.244-1.231.8-2.395,1.155-3.608.633-2.195,1.294-4.38,1.793-6.606a1.974,1.974,0,0,0-1.269-2.365,1.744,1.744,0,0,0-2.418.682,61.22,61.22,0,0,0-3.518,5.346,9.768,9.768,0,0,0-.88,2.755,8.4,8.4,0,0,1-1.907,4.345,9.877,9.877,0,0,0-2.424,4.592,8.68,8.68,0,0,1-.386.964c-.8-2.049-1.12-2.249-2.844-1.838a4.92,4.92,0,0,0-.192-.83c-.479-1.158-1.39-1.338-2.249-.412a4.092,4.092,0,0,0-.9,1.309c-.665,1.826-1.335,3.655-1.855,5.521s-.778,3.814-1.28,5.689c-1.109,4.127-1.924,8.342-3.7,12.272a6.74,6.74,0,0,0-.4,1.547,21.413,21.413,0,0,0,.157,8.406,27.388,27.388,0,0,1,.122,10.014,11.046,11.046,0,0,1-2.966,5.43,11.52,11.52,0,0,0-2.842,8.765,14.254,14.254,0,0,0,1.126,4.648,10.138,10.138,0,0,1,.526,7.929,6.116,6.116,0,0,0-.354,1.414,6.255,6.255,0,0,0,.348,3.573,5.606,5.606,0,0,1,.456,2.243c.02,2.969-.049,5.936-.055,8.905a5.792,5.792,0,0,0,.238,1.574,1.937,1.937,0,0,0,1.417,1.523c.853.2,1.375-.36,1.816-.96a7.31,7.31,0,0,0,1.481-3.606,23.4,23.4,0,0,1,1.974-6.832,10.187,10.187,0,0,0,.67-3.253A23.271,23.271,0,0,0,540.3,97.7a4.254,4.254,0,0,1-.1-1.582,11.044,11.044,0,0,1,3.3-6.519,5.4,5.4,0,0,0,1.945-5.047c-.061-.485-.024-.984-.125-1.457a9.74,9.74,0,0,1,.2-4.325,44.034,44.034,0,0,0,1.117-6.011,64.369,64.369,0,0,1,1.64-9.907,11.447,11.447,0,0,0-.247-6.749,9.669,9.669,0,0,1,.044-6.586c.378-1.1.586-2.255.949-3.361a9,9,0,0,1,1.818-3.77,10.85,10.85,0,0,1,.2,1.605c-.079,1.457-.18,2.911-.325,4.357a4.466,4.466,0,0,0,1.884,4.589,2.86,2.86,0,0,1,1.263,2.043,2.617,2.617,0,0,0,1.32,2.015c1.753.81,2.046,2.316,2.209,3.95l.044.435a22.43,22.43,0,0,0,2.3,8.379,13.234,13.234,0,0,1,.92,3.64,14.254,14.254,0,0,0,.409,2.43,8.849,8.849,0,0,1,.351,4.446c-.317,3.225.554,5.088,3.41,5.654a1.331,1.331,0,0,1,1.167,1.3c.073.723.168,1.445.261,2.168a10.907,10.907,0,0,0,1.715,5.352,2.555,2.555,0,0,0,2.772,1.182,2.742,2.742,0,0,0,1.924-2.479,22.306,22.306,0,0,0,.131-3.352,15.2,15.2,0,0,1,2.157-8.362,7.242,7.242,0,0,0,.853-2.447,44.305,44.305,0,0,0,.328-4.65c.084-2.8.589-5.424,2.844-7.384l.293-.325c2.026-2.775,3.173-5.773,2.461-9.279a16.86,16.86,0,0,1,.641-7.912c.139-.508.348-1,.529-1.5a4.072,4.072,0,0,1,.246,1.666,4.554,4.554,0,0,0,1.927,4.035,5.345,5.345,0,0,1,.94.914,2.929,2.929,0,0,1,.769,2.827c-.284,1.03-.572,2.058-.886,3.082a41.319,41.319,0,0,0-1.793,5.988,16.517,16.517,0,0,0,.853,8.626,6.084,6.084,0,0,1,.5,1.808,36.21,36.21,0,0,1,.026,4.232A17.074,17.074,0,0,0,589.527,94a3.213,3.213,0,0,1,.569,3.123,30.767,30.767,0,0,0-.8,5,3.56,3.56,0,0,0,2.4,3.913l.25.262c0,.917.009,1.889-.006,2.858a4.031,4.031,0,0,0,1.387,3.245,17.613,17.613,0,0,0,2.42,1.866,1.986,1.986,0,0,1,1.025,2.2c-.122.914-.168,1.837-.229,2.76a1.754,1.754,0,0,0,.894,1.849c.694.363,1.2-.058,1.721-.433l.281-.017.186.2c.85.856,1.4,1,2.151.571s.905-1.056.632-2.148a6.477,6.477,0,0,1-.291-1.995" transform="translate(-284.376 -0.001)" fill="#fff"/>
  <path id="Path_2" data-name="Path 2" d="M85.391,133.026a8.748,8.748,0,0,0-2.31-4.781,9.1,9.1,0,0,1-2.641-5.84,5.853,5.853,0,0,0-4.089-5.321,3.011,3.011,0,0,1-1.727-1.442c-.45-.86-.964-1.695-1.338-2.586a3.407,3.407,0,0,0-2.424-2.136,2.682,2.682,0,0,1-2.165-2.249c-.107-.427-.252-.845-.317-1.277a8.525,8.525,0,0,0-4.354-6.243,3.772,3.772,0,0,1-1.5-1.864,21.229,21.229,0,0,0-2.479-4.592c-1.539-1.884-3.474-3.335-6.209-2.255l-.345-.1c-.331-.694-.63-1.466-1.048-2.169-1.022-1.7-1.689-1.854-3.4-.867l-.235.014c-.148-.308-.308-.648-.476-.987-.586-1.172-1.112-2.383-1.779-3.509-.6-1.011-1.321-1.927-2.734-1.861-.36.017-.734-.319-1.37-.618a14.781,14.781,0,0,1,1.5-1.031,5.354,5.354,0,0,0,2.818-3.01,1.761,1.761,0,0,1,1.213-1.15,10.562,10.562,0,0,1,2.128-.464,5.391,5.391,0,0,0,4.168-2.85A14.041,14.041,0,0,0,56.268,68.7a2.925,2.925,0,0,1,1.309-2.412,2.818,2.818,0,0,0,.929-1.585,8.2,8.2,0,0,0,.291-2.3,4.552,4.552,0,0,1,1.277-3.439,7.124,7.124,0,0,0,1.84-6.479,11.068,11.068,0,0,1,.195-5.889,4.907,4.907,0,0,0-1.684-6,1.725,1.725,0,0,1-.734-1.753,13.118,13.118,0,0,0,.127-1.309c.07-1.5.157-3,.165-4.5a2.177,2.177,0,0,0-.392-1.228C57.852,29.5,56.456,28.8,54,29.651a8.821,8.821,0,0,1-1.535.453c-.845.139-1.144-.133-1.234-.984a18.353,18.353,0,0,0-.2-1.881,2.228,2.228,0,0,0-2.328-1.988,5.906,5.906,0,0,0-1.451.09,4.337,4.337,0,0,1-3.915-.967,14.881,14.881,0,0,0-2.859-1.732c-1.721-.9-3.495-1.7-5.2-2.621a7.406,7.406,0,0,0-3.338-.92,12.935,12.935,0,0,1-1.747-.044,5.888,5.888,0,0,0-4.856,1.478c-1.611,1.257-3.251,2.481-4.934,3.64-2.212,1.524-4.606,2.287-7.3,1.425l-.569-.116a4.113,4.113,0,0,0-3.094.409,12.24,12.24,0,0,0-4.125,3.19A1.806,1.806,0,0,1,2.9,29.7c-.929-.421-1.466-.247-1.907.482-1.056,1.745-1.739,4.627.453,6.7.354.334.708.668,1.083.978a3.931,3.931,0,0,1,1.164,4.621,20.328,20.328,0,0,0-.659,2.383c-.589,3.323-.331,6.412,2.5,8.783a10.756,10.756,0,0,1,1.57,1.727,4.2,4.2,0,0,1,1.1,3.765c-.291,1.126-.415,2.293-.7,3.416a3.1,3.1,0,0,0,.319,2.653,1.811,1.811,0,0,1,.308,1.083,4.6,4.6,0,0,0,.494,2.539,3.564,3.564,0,0,1,.183,2.676,4.553,4.553,0,0,0,.824,4.4c.47.56.894,1.152,1.364,1.713a2.855,2.855,0,0,1,.717,2.824,5.008,5.008,0,0,0,.392,3.671,19.376,19.376,0,0,1,2,8.156c0,1.617.157,3.309-.813,4.81a2.792,2.792,0,0,0,.484,3.5,13.547,13.547,0,0,1,2.284,4.52,2.186,2.186,0,0,1-.218,2.073,8.113,8.113,0,0,0-.83,6.458A13.646,13.646,0,0,0,16.976,118a7.853,7.853,0,0,1,1.263,3.074,3.671,3.671,0,0,0,1.277,2.383,1.4,1.4,0,0,1,.5.836c.157,1.584.534,3.147.079,4.772-.464,1.651-.081,2.528,1.425,3.425a2.854,2.854,0,0,1,1.44,2.522c.044.824-.012,1.658.029,2.482a4.984,4.984,0,0,0,1.686,3.748c.525.441,1.091.894,1.834.58a1.8,1.8,0,0,0,1.08-1.765c.02-.92-.023-1.849-.084-2.769-.1-1.6-.046-3.128,1.6-4.034l.215-.195a4.2,4.2,0,0,0,.708-5.646,5.341,5.341,0,0,1-.5-5.015,6.926,6.926,0,0,0,.624-2.238,4.555,4.555,0,0,0-.339-2.238,35.41,35.41,0,0,0-2.221-3.593c-1.216-1.846-1.9-3.729-.6-5.831l.18-.4a6.277,6.277,0,0,0-.052-6.774,1.685,1.685,0,0,1,0-2.035,3.384,3.384,0,0,0,.02-3.843,16.929,16.929,0,0,1-1.065-2.392c-.557-1.567-.052-2.52,1.814-3.181.74.807,1.538,1.721,2.38,2.595a4.355,4.355,0,0,0,4.525,1.3,2.2,2.2,0,0,1,2.691,1.12c.67,1.016,1.239,2.1,1.927,3.094a14.222,14.222,0,0,0,1.843,2.235c.728.7,1.3.607,2.026-.1,1.353-1.317,1.643-1.341,2.935,0a2.923,2.923,0,0,0,2.54,1.15,1.428,1.428,0,0,1,1.622.934c.676,1.5,1.4,2.987,2.023,4.51.778,1.916,2.064,2.519,3.919,1.736.267-.113.529-.244.8-.354,1.048-.423,1.155-.444,1.756.571.74,1.251,1.416,2.546,2.037,3.863a5.438,5.438,0,0,0,4.052,3.233,2.714,2.714,0,0,1,2.171,1.643c.235.479.52.938.755,1.417,1.091,2.215,2.328,4.281,4.879,5.1l.488.313c1.257.871,2.444,1.773,2.528,3.515a14.988,14.988,0,0,0,1.44,4.871,4.677,4.677,0,0,0,2.122,2.5,3.671,3.671,0,0,1,1.756,2.052,26.7,26.7,0,0,0,1.12,2.533c.572,1.144,1.611,1.855,2.34,1.663.758-.2,1.158-1.033,1.12-2.464-.014-.627-.337-1.323-.154-1.867.468-1.39.065-2.7-.145-4.028m-44.284-61.9a3.252,3.252,0,0,1-1.042.349c-.793.185-1.62.264-2.389.52A14.474,14.474,0,0,0,35.142,73.1a6.012,6.012,0,0,0-1.654,1.361,5.676,5.676,0,0,1-2.418,1.745A13.161,13.161,0,0,0,30,75.3c-1.719-1.158-2.757-1.242-4.13-.212a16.462,16.462,0,0,1-1.553.888,21.035,21.035,0,0,1,.331-2.081c.142-.511.432-.978.621-1.477.581-1.533.4-2.174-1-3.062a1.469,1.469,0,0,1-.778-1.425c.023-.972.009-1.948,0-2.923a3.226,3.226,0,0,0-1.918-3.158c-.9-.436-.978-.749-.757-1.747a16.825,16.825,0,0,0,.325-1.86c.247-2.1-.8-3.564-2.348-4.81a1.373,1.373,0,0,1-.525-.926c.035-1.489-.462-2.978.122-4.473.369-.949-.232-1.71-.877-2.322a3.343,3.343,0,0,1-.879-3.355c.206-1.051.688-1.367,1.742-1.222a6.536,6.536,0,0,1,.865.131c2.392.723,4.276-.185,5.942-1.823.276-.273.566-.537.836-.816a3.824,3.824,0,0,1,3.321-1.146c.824.084,1.637.281,2.459.325,1.062.058,2.125.018,3.309.018,2.322,4.217,3.318,4.722,6.894,3.422.859.868,1.825,1.655,1.2,3.187a2,2,0,0,0,.476,2.046c.691.816,1.382,1.634,2.139,2.386a18.544,18.544,0,0,0,1.73,1.376c-.377.624-.557.955-.769,1.26-.862,1.245-1.033,2.116-.1,3.19,1.295,1.477.615,3.033.54,4.586l-.183.383c-.923,1.039-1.864,2.07-2.784,3.112a6.808,6.808,0,0,0-1.393,3.617c-.122.766-.165,1.547-.287,2.316a3.3,3.3,0,0,1-1.464,2.418" transform="translate(-0.001 -10.152)" fill="#fff"/>
  <path id="Path_3" data-name="Path 3" d="M894.832,94.205a2.255,2.255,0,0,0-1.974.1c-1.646.711-3.315,1.382-4.914,2.186a10.318,10.318,0,0,0-2.9,1.91c-2.435,2.572-5.941,3.506-8.554,5.779l-.261.127c-2.34.943-4.636,2.026-7.036,2.784-2.093.659-4.244,1.056-5.654,3.059a3.128,3.128,0,0,1,.156-1.335,3.46,3.46,0,0,0-.391-3.2c-.462-.743-.987-1.448-1.445-2.194a2.435,2.435,0,0,1-.488-1.158,3.74,3.74,0,0,0-.934-2.38,3.318,3.318,0,0,1-.642-1.7c-.09-3.01-.076-6.02-.134-9.027a3.944,3.944,0,0,0-2.011-3.5,2.12,2.12,0,0,1-.932-1.048c-.807-2.941-2.578-5.579-2.711-8.728a3.358,3.358,0,0,0-.235-.99c-.958-2.5-1.878-5.007-2.92-7.465a14.949,14.949,0,0,0-1.751-2.85c-.25-.337-.865-.74-1.15-.639a1.713,1.713,0,0,0-.966,1.112,11.072,11.072,0,0,0-.029,2.459c.081,2.517.183,5.039.281,7.6a2.233,2.233,0,0,0-1.878,2.676c.122,1.693.319,3.376.511,5.059.11.964.357,1.916.386,2.879.053,1.9.021,3.8-.012,5.692a13.442,13.442,0,0,0,1.225,6.1,13.019,13.019,0,0,1,1.312,5.038c.044.92.093,1.846.064,2.767a2.464,2.464,0,0,0,1,2.16c.488.369,1.045.644,1.855,1.132-.633,2.3-1.216,4.65-1.936,6.966-.687,2.223-1.62,4.357-.984,6.807.29,1.106-.154,1.559-1.257,1.939-.687.238-1.407.392-2.086.656-1.762.688-3.556,1.318-5.251,2.154-1.46.723-1.544,1.648-.511,2.923l.224.322-.168.273c-.328.2-.665.4-1.01.575a18.193,18.193,0,0,0-5.553,4.664,2.414,2.414,0,0,0-.218,3.439c1.007,1.512.984,2.017-.348,3.221-1.62,1.469-3.28,2.895-4.946,4.308a5.445,5.445,0,0,0-1.741,2.288,1.431,1.431,0,0,1-.7.816,6.984,6.984,0,0,0-3.727,3.526,7.678,7.678,0,0,1-3.213,3.289c-.772.4-1.614.668-2.372,1.091a44.985,44.985,0,0,0-8.937,7.224,7.33,7.33,0,0,0-1.379,2.363,1.922,1.922,0,0,0,.322,2.525,2.19,2.19,0,0,0,2.714,0l.595-.418c1.973-1.657,3.915-3.349,5.921-4.966a8.26,8.26,0,0,1,2.47-1.483,54.734,54.734,0,0,1,5.343-1.4,9.594,9.594,0,0,0,5.048-2.717c1.875-1.974,3.861-3.843,5.808-5.75a5.736,5.736,0,0,1,1.013-.827,6.441,6.441,0,0,0,2.708-3.167,22.375,22.375,0,0,1,4.1-6.162c.723-.851,1.523-1.643,2.2-2.534a5.451,5.451,0,0,0,.987-1.9,7.889,7.889,0,0,1,3.524-4.812c2.479-1.631,4.911-3.318,7.378-4.969a7.18,7.18,0,0,0,2.455-2.824,11.1,11.1,0,0,1,1.362-2.055,11.221,11.221,0,0,1,5.7-3.6,12.423,12.423,0,0,0,7.877-6.867,4.655,4.655,0,0,1,1.872-1.97,9.66,9.66,0,0,1,1.706-.819,14.851,14.851,0,0,0,4.539-2.862,14.092,14.092,0,0,1,2.581-1.892,34.984,34.984,0,0,0,7.619-5.6c1.344-1.265,2.627-2.6,3.878-3.959.8-.863.574-1.7-.478-2.2" transform="translate(-430.943 -34.207)" fill="#fff"/>
  <path id="Path_4" data-name="Path 4" d="M424.83,144.948a13.458,13.458,0,0,1-1.4-6.049c.09-1.495-.038-3,.018-4.5a19.272,19.272,0,0,1,.36-3.614c.479-2.078,1.109-4.127,1.71-6.177a2.726,2.726,0,0,0-.4-2.626,3.944,3.944,0,0,1-.679-3.584c.372-1.556.871-3.085,1.283-4.633a5.677,5.677,0,0,0,.287-1.7,2.351,2.351,0,0,0-1.376-2.241,2.226,2.226,0,0,0-2.621.752,6.324,6.324,0,0,0-1.236,1.785,28.685,28.685,0,0,0-1.089,3.617c-.589,2.394-1.124,4.807-1.683,7.207l-.194.549A13.525,13.525,0,0,0,416,129.524a3.049,3.049,0,0,1-1.692,2.345,21.43,21.43,0,0,0-3.98,3.12,40.879,40.879,0,0,0-3.053,3.7,17.91,17.91,0,0,1,.131-2.537c.516-2.862,1.115-5.713,1.669-8.574.276-1.428.575-2.862.755-4.3a5.8,5.8,0,0,0-.136-2.293,2.155,2.155,0,0,0-1.9-1.773,2.338,2.338,0,0,0-2.244,1.353,7.679,7.679,0,0,0-.444.917c-1.277,3.167-2.546,6.336-3.9,9.718-.453-2.067-1.3-3.568-3.617-3.036a12.077,12.077,0,0,1-1.289-4.125,5.55,5.55,0,0,0-1.5-2.786,1.779,1.779,0,0,0-2.032-.354,1.66,1.66,0,0,0-1.2,1.652c0,.723-.113,1.445-.165,2.171-.087,1.2-.232,2.412-.238,3.617a32.372,32.372,0,0,0,.218,3.782c.218,1.875-.929,3.106-1.91,4.6a27.415,27.415,0,0,1-1.277-2.645,14.813,14.813,0,0,1-.25-1.866c-.212-.946-.531-1.867-.746-2.813-.244-1.083-.441-2.177-.627-3.266-.09-.528-.064-1.071-.159-1.593a42.85,42.85,0,0,1-1.2-7.607,9.754,9.754,0,0,0-.328-2.438c-.238-.885-.9-1.353-1.571-1.2a3.077,3.077,0,0,0-2.191,1.317,18.356,18.356,0,0,0-1.239,2.621c-.349.955-.555,1.962-.815,2.949a1.224,1.224,0,0,1-1.332,1.08c-1.4-.064-2.107.815-2.606,1.944-.351.8-.6,1.649-1.007,2.421a7.2,7.2,0,0,0-.456,6.325,3.066,3.066,0,0,1,.09,2.273c-.967,2.638-1.431,5.465-3,7.883a3.7,3.7,0,0,0-.63,1.617c-.081.943-.3,2.113.131,2.821a6.552,6.552,0,0,1,.891,3.875,3.232,3.232,0,0,0,.1.868,1.977,1.977,0,0,0,1.7,1.573c.847.04,1.37-.395,1.686-1.492a4.634,4.634,0,0,1,1.141-2.15,2.293,2.293,0,0,0,.522-2.575,1.836,1.836,0,0,1,.345-1.89,11.7,11.7,0,0,0,.935-1.3,3.366,3.366,0,0,0,.488-1.466c-.014-1.637.865-2.8,1.811-4.072a3.759,3.759,0,0,0,.781.583,3.15,3.15,0,0,1,1.892,2.394c.456,1.486.807,3.01,1.376,4.45.778,1.983,1.712,3.9,2.595,5.846l.36.455a1.516,1.516,0,0,0,1.724.421,1.852,1.852,0,0,0,1.431-1.817c.006-1.938-.061-3.881-.113-5.822-.029-1.086-.1-2.175-.159-3.428a2.014,2.014,0,0,1,1.341,2.1c-.041.433.035.882-.032,1.309-.264,1.677.827,2.6,1.924,3.506a.974.974,0,0,0,1.344-.02c1.039-.969,2.058-1.962,1.858-3.6a3.52,3.52,0,0,1,.038-1.295,7.028,7.028,0,0,0-.357-4.56,1.67,1.67,0,0,1,.012-1.55,11.111,11.111,0,0,1,1.878,1.759c1.019,1.533,1.918,3.147,2.807,4.76.7,1.274,1.3,2.6,1.979,3.889a1.754,1.754,0,0,0,1.727,1.123,1.773,1.773,0,0,0,1.663-1.4c.148-.542.366-1.065.581-1.677l.189.209.058.43a4.145,4.145,0,0,0,3.016,3.878,12.7,12.7,0,0,1,1.843.839,5.173,5.173,0,0,0,6.775-1.275c.267-.331.52-.673.9-1.164.16.737.287,1.3.4,1.858a6.535,6.535,0,0,0,1.965,3.509,2.574,2.574,0,0,0,3.341.232,2.778,2.778,0,0,0,1.367-2.7,20.614,20.614,0,0,0-1.546-6.2m-46.383-13c.845-2.249,1.64-4.357,2.432-6.467l.377.1a18.06,18.06,0,0,0,.044,3.318,16.712,16.712,0,0,0,1.271,3.053h-4.125Zm37.971,11c-.49.406-.859.961-1.323,1.408-.8.772-1.791.635-1.948-.383a9.68,9.68,0,0,1,.264-2.935,2.376,2.376,0,0,1,1.6-2.055,14.149,14.149,0,0,0,2.76-2.1c.244,2.346.627,4.418-1.353,6.064" transform="translate(-198.011 -58.681)" fill="#fff"/>
  <path id="Path_5" data-name="Path 5" d="M292.516,76.881a14.863,14.863,0,0,0-3.1.65,13.763,13.763,0,0,0-3.3,1.849c-2.952,2.293-5.837,4.679-8.725,7.056-.717.592-1.341,1.321-2.377,1.222a3.078,3.078,0,0,0-2.278.8c-1.063.847-2.09,1.747-3.164,2.583a7.651,7.651,0,0,1-1.6.993c-.96.424-1.965.752-2.963,1.123a3.676,3.676,0,0,1-.07-3.695,5.641,5.641,0,0,0,.587-1.643c.276-1.666.65-3.326-.325-4.958a4.522,4.522,0,0,1-.247-1.84,7.46,7.46,0,0,0-.215-2.438,3.9,3.9,0,0,1,.014-3.2c.139-.415.291-.827.4-1.248a12.112,12.112,0,0,0,.281-5.631c-.421-2.1-2.229-2.757-3.948-1.454l-.9.676c-1.724-.436-2.055-.389-2.812.737a4.119,4.119,0,0,0-.662,1.739c-.1.862.035,1.747.017,2.624a54.04,54.04,0,0,1-.27,8.136A52.449,52.449,0,0,1,254.217,91.1a22.171,22.171,0,0,0-.737,3.111c-.224.99-.386,2-.682,2.964-.462,1.527-1.054,3.015-1.512,4.548a4.4,4.4,0,0,0-.1,1.733,2.217,2.217,0,0,0,1.581,1.915,1.685,1.685,0,0,0,1.907-.746c.586-.711,1.155-1.437,1.756-2.142.258-.3.566-.561.853-.839l.345.194c-.2.824-.421,1.652-.609,2.485a8.88,8.88,0,0,0-.343,1.843,12.22,12.22,0,0,1-1.559,6.414c-.5.836-.793,1.974.067,2.7a2.41,2.41,0,0,1,.656,2.633q-.805,4.523-1.652,9.032a6.337,6.337,0,0,1-.485,1.524,23.83,23.83,0,0,0-1.445,5.169c-.421,1.887.456,3.083,1.573,4.27a1.239,1.239,0,0,0,2.037.093,6.517,6.517,0,0,0,1.626-2.357,41.819,41.819,0,0,1,2.005-5.3,6.6,6.6,0,0,0,.418-1.393c.4-1.854.772-3.712,1.158-5.567.363-1.756.729-3.509,1.144-5.491,1.55.726,2.3-.29,3.106-1.254a3.025,3.025,0,0,1,.871-.494,12.184,12.184,0,0,0,.9,2.29,11.963,11.963,0,0,0,1.622,1.646l.334.476c1.225,2.267,2.58,4.5,2.76,7.155a5.168,5.168,0,0,0,2.151,3.8,7.46,7.46,0,0,1,2.615,4.432,15.444,15.444,0,0,0,3.106,6.191,5.05,5.05,0,0,1,1.039,2.65,7.061,7.061,0,0,0,.523,2.4,9.619,9.619,0,0,1,1.164,3.71,1.7,1.7,0,0,0,1.771,1.585c1.027.012,1.53-.416,1.779-1.533a6.413,6.413,0,0,0,.081-.673c1.46.023,2.182-.363,2.368-1.483a8.438,8.438,0,0,0-.18-4.606c-.287-.723-.522-1.466-.766-2.206-1.428-4.343-2.8-8.687-3.039-13.32a7.207,7.207,0,0,0-1.26-3.2,13.524,13.524,0,0,1-2.116-5.207c-.418-2.618-1.489-3.538-4.1-3.974a3.489,3.489,0,0,1-2.487-1.344c-1.4-1.988-2.844-3.947-4.261-5.918-.2-.279-.354-.583-.528-.877-.473-.784-.914-1.588-1.42-2.348a2.609,2.609,0,0,1,1.3-4.04c1.091-.415,2.189-.8,3.277-1.222a9,9,0,0,0,6.055-6.559,5.709,5.709,0,0,1,3.509-4.365c.409-.154.772-.421,1.17-.6A8.958,8.958,0,0,0,288,84.553a5.576,5.576,0,0,1,1.614-1.823c1.37-1.158,2.633-2.444,3.9-3.715a1.164,1.164,0,0,0,.322-1.454,1.184,1.184,0,0,0-1.327-.681" transform="translate(-134.401 -35.522)" fill="#fff"/>
  <path id="Path_6" data-name="Path 6" d="M777.859,153.079a2.483,2.483,0,0,0,.4-2.223,37.728,37.728,0,0,0-1.314-3.7,10.774,10.774,0,0,1-.966-6.083,12.321,12.321,0,0,0-2.328-9.529,4.736,4.736,0,0,1-1.031-3.759,3.857,3.857,0,0,0-.417-2.687c-1.219-1.936-2.389-3.9-4.5-5.068a.984.984,0,0,1,.015-1.765c.444-.293.973-.447,1.44-.708a19.3,19.3,0,0,0,2.493-1.477,7.24,7.24,0,0,1,3.128-1.469,4.78,4.78,0,0,0,1.312-.554,8.514,8.514,0,0,0,3.167-3.35,3.9,3.9,0,0,0,.545-2.514,10.32,10.32,0,0,0-.232-1.732,5.651,5.651,0,0,0-.9-2.244,25.613,25.613,0,0,1-2.36-3.474,1.7,1.7,0,0,1-.133-2.1,2.393,2.393,0,0,0-.584-3.271,4.222,4.222,0,0,0-4.014-1.2,5.317,5.317,0,0,1-3.663-.6c-1.809-.923-2.969-.833-4.3.665-1.349,1.524-2.54,3.193-3.794,4.8-.2.252-.377.519-.607.839a3.208,3.208,0,0,1-.8-2.336c-.221-1.782-.4-3.573-.758-5.326a1.7,1.7,0,0,0-1.73-1.5,2.086,2.086,0,0,0-1.985,1.632,5.637,5.637,0,0,0-.078,1.274c-.046,1.257-.018,2.519-.148,3.77-.247,2.412-.775,4.81-.836,7.225a40.861,40.861,0,0,1-1.016,7.788,10.14,10.14,0,0,0-.032,2.734,3,3,0,0,0,1.779,2.49,2,2,0,0,1,1.016,2.9c-.3.769-.711,1.492-1.01,2.264a4.482,4.482,0,0,0,.113,3.953,5.115,5.115,0,0,1,.36,4.194,9.452,9.452,0,0,0-.319,3.732,18.3,18.3,0,0,1,.032,4.642,7.523,7.523,0,0,0-.073,1.889,2.7,2.7,0,0,0,.6,1.408,2.292,2.292,0,0,0,3.93-.714,9.266,9.266,0,0,0,.589-3.26,11.929,11.929,0,0,1,1.065-4.789,16.448,16.448,0,0,0,.923-3.646,14.876,14.876,0,0,0,.13-2.063c.345.256.775.552,1.19.871a17.953,17.953,0,0,1,4.6,5.593,10.022,10.022,0,0,0,1.631,2.232,5.983,5.983,0,0,1,1.831,4.867,6.965,6.965,0,0,0,.276,2.729,29.935,29.935,0,0,1,1.335,4.913,7.377,7.377,0,0,0,2.09,4.1,2.514,2.514,0,0,0,3.928-.362m-11.3-42.238a13.666,13.666,0,0,1-1.553,1.965c-.343-.241-.65-.348-.775-.563a9.162,9.162,0,0,0-2.113-2.543c-.322-.264-.328-.906-.508-1.469a3.719,3.719,0,0,0,2.859-2.423c.868-2.145,1.353-2.366,4.261-2.09-2.136,1.442-2.122,3.164-1.663,5.094a3.273,3.273,0,0,1-.508,2.029" transform="translate(-402.308 -48.55)" fill="#fff"/>
  <path id="Path_7" data-name="Path 7" d="M807.195,111.19a1.7,1.7,0,0,0-1.361,2.177,2.058,2.058,0,0,0,2.339,1.9,6.7,6.7,0,0,1,3.068.685c1.512.575,2.667,1.991,4.557,1.762a4.492,4.492,0,0,1-.267.824,8.539,8.539,0,0,0-1.089,4.182,4.534,4.534,0,0,1-.714,2.009,3.106,3.106,0,0,0-.386,2.513,9.072,9.072,0,0,0,.772,2.037,2.133,2.133,0,0,1,.081,2.162,5.809,5.809,0,0,0-.023,5.344,2.016,2.016,0,0,1,.261.969,30.657,30.657,0,0,1-.464,6.226,28.746,28.746,0,0,0-.734,8.238,6.021,6.021,0,0,0,1.08,3.576c.757,1,1.7.914,2.331-.163a3.871,3.871,0,0,0,.31-.816q.639-2.081,1.257-4.176a14.364,14.364,0,0,0,.589-2.244c.39-3.274.761-6.554,1.06-9.837a9.86,9.86,0,0,1,1.55-5.091,2.535,2.535,0,0,0,.5-1.19,9.375,9.375,0,0,0-.23-4.189,2.019,2.019,0,0,1,.119-1.817,8.913,8.913,0,0,0,.851-5.657c-.113-.9-.1-1.82-.143-2.728l.355-.258a5.728,5.728,0,0,1,1.5.723,6.511,6.511,0,0,0,5.735,1.379,3.415,3.415,0,0,1,2.833.648,6.585,6.585,0,0,0,3.8,1.335c1.97.069,2.723-.607,2.812-2.513.4-.287.819-.54,1.184-.856a1.827,1.827,0,0,0,.157-2.915,4.729,4.729,0,0,0-1.675-1.111,11.488,11.488,0,0,0-2.548-.584,2.174,2.174,0,0,1-1.492-.769,3.956,3.956,0,0,0-3.091-1.393c-.92-.014-1.843,0-2.784,0-1.239-1.706-1.619-1.828-3.927-1.521a5.443,5.443,0,0,1-3.161-.128,17.62,17.62,0,0,1,.708-2.192,25.893,25.893,0,0,0,2.005-6.382,24.267,24.267,0,0,1,2.032-6.955l.087-.278c.253-1.68.3-3.3-1.14-4.566-1.15-1.007-1.176-1.271-.412-2.589.781-1.347,1.631-2.656,2.34-4.038a7.6,7.6,0,0,0,.862-2.586c.18-1.779-1.039-2.8-2.827-2.513a4.147,4.147,0,0,0-3.193,2.7c-.455,1.013-.949,2.009-1.434,3.015-1.242,2.578-2.551,5.123-2.917,8.034a15.218,15.218,0,0,1-.882,3.059,14.047,14.047,0,0,0-.958,4.836,6.919,6.919,0,0,1-.74,3.233,6.706,6.706,0,0,0-.56,4.4c.345,1.742-.195,2.36-1.93,2.368a3.821,3.821,0,0,0-2.609.726,3.722,3.722,0,0,1-2.284.819,5.93,5.93,0,0,0-1.154.183" transform="translate(-431.215 -41.622)" fill="#fff"/>
  <path id="Path_8" data-name="Path 8" d="M207.779,140.855c-1.739,1.251-2.874,1.263-4.635.032-.52-.363-1.01-.766-1.535-1.115a2.188,2.188,0,0,0-2.827-.052,1.488,1.488,0,0,1-1.762.137,2.732,2.732,0,0,0-2.9.252c-.7.438-1.349.961-2.061,1.373a1.187,1.187,0,0,1-1.9-1.083,2.742,2.742,0,0,1,.223-1.129c.313-.708.685-1.39,1.065-2.064a27.428,27.428,0,0,0,1.469-2.511c.879-2.031.557-3.035-1.216-4.212-.2-.133-.4-.261-.726-.47.252-1.881,1.46-2.987,2.737-4.058,1.712-1.434,3.442-2.85,5.091-4.357.923-.845,1.535-1.9.891-3.219a5.041,5.041,0,0,1,2.842-.793c.827.006,1.655.009,2.482-.023a6.327,6.327,0,0,0,5.2-2.493,2.233,2.233,0,0,0,.337-2.465,2.05,2.05,0,0,0-2.049-1.129c-1.6.069-3.2.093-4.795.235a1.815,1.815,0,0,1-1.82-.546,2.527,2.527,0,0,0-2.232-.845,9.9,9.9,0,0,0-5.863,2.29,3.188,3.188,0,0,0-1.118,1.788,2.8,2.8,0,0,1-2.589,2.644l-.694.215c-2.908.833-3.869,2.014-4.267,4.975a10.85,10.85,0,0,1-.9,3.637,10.952,10.952,0,0,0-1.332,4.708,4.517,4.517,0,0,1-1.242,2.885,8.887,8.887,0,0,0-1.468,1.8,9.71,9.71,0,0,0-1.013,2.838,1.767,1.767,0,0,0,1.826,2.113c.221.017.441,0,.8,0a8.753,8.753,0,0,0-.784,1.37,11.434,11.434,0,0,0-.711,2.635c-.119,1.393.542,2.043,1.962,2.154.679.055,1.361.024,2.043.038,1.417.035,1.861.5,1.585,1.889a2.8,2.8,0,0,0,1.065,3.108,2.89,2.89,0,0,1,1.2,2.625,7.854,7.854,0,0,0,.272,2.015,3.538,3.538,0,0,0,.787,1.352,1.387,1.387,0,0,0,2.075.133,7.354,7.354,0,0,0,1.411-1.82c.554-1.022.923-2.148,1.466-3.175a12.914,12.914,0,0,1,1.521-2.29,1.68,1.68,0,0,1,2.07-.54,3.006,3.006,0,0,0,1.945-.154,6.423,6.423,0,0,0,1.956-1.236,3.7,3.7,0,0,1,3.353-.926,5.381,5.381,0,0,0,6.249-4.487,3.078,3.078,0,0,0-.345-1.927c-.669-1.134-1.758-1.123-3.137-.131" transform="translate(-95.866 -59.036)" fill="#fff"/>
  <path id="Path_9" data-name="Path 9" d="M708.8,132.089a3.4,3.4,0,0,1-.61-4.014,18.679,18.679,0,0,0,1.208-2.963,9.6,9.6,0,0,0-.613-7.352,4.609,4.609,0,0,1-.447-1.663,4.828,4.828,0,0,0-1.44-3.085,14.59,14.59,0,0,0-5.4-3.6,7.343,7.343,0,0,0-7.889,1.4,50.767,50.767,0,0,0-3.864,4.543,6.417,6.417,0,0,1-1.346,1.271c-2.261,1.437-4.023,3.239-4.464,6a8.475,8.475,0,0,1-1.922,4.31,4.663,4.663,0,0,0-.311,5.7,8.538,8.538,0,0,1,1.556,6.754c-.128.961-.189,1.93-.3,3.1a20.642,20.642,0,0,0,.456,2.963,1.906,1.906,0,0,0,2.31,1.524,3.559,3.559,0,0,1,2.967.819,17.021,17.021,0,0,0,2.273,1.23,1.842,1.842,0,0,1,1.036.9,2.771,2.771,0,0,0,3.463,1.707,10.349,10.349,0,0,1,3.982-.505,1.548,1.548,0,0,0,.981-.226,20.045,20.045,0,0,0,4.163-2.627,54.168,54.168,0,0,0,5.509-6.579,5.884,5.884,0,0,0,1.266-4.929,11.79,11.79,0,0,0-2.562-4.679m-10.627,4.94a3.752,3.752,0,0,1,.529,2.978c-.9.087-1.84.178-2.679.253-.7-1.085-1.318-2.058-1.947-3.022a2.512,2.512,0,0,0-2.241-1.39c-.766.035-1.031-.418-1.155-1.045-.133-.665-.243-1.338-.38-2a4.7,4.7,0,0,1,1.48-4.766,4.584,4.584,0,0,0,1.64-4.537c-.25-1.486.8-2.372,2.063-2.99-.218.935-.456,1.866-.638,2.807a4.016,4.016,0,0,0,1.959,4.36c.363.246.76.436,1.12.685a1.644,1.644,0,0,1,.76,2.249c-.166.505-.4.99-.607,1.486a5.773,5.773,0,0,0,.095,4.934" transform="translate(-364.367 -58.254)" fill="#fff"/>
  <path id="Path_10" data-name="Path 10" d="M156.417,123.4a13.543,13.543,0,0,1,.906-5.28,4.719,4.719,0,0,0,.119-3.837,6.584,6.584,0,0,1-.563-4.238v-.583a1.67,1.67,0,0,0-1.727-1.768,4.183,4.183,0,0,0-2.769.705,1.824,1.824,0,0,1-1.025.369c-1.767-.107-2.427.383-2.2,2.087a10.765,10.765,0,0,1-.627,5.288,5.844,5.844,0,0,0-.189.853,1.9,1.9,0,0,0,1.025,2.439,1.323,1.323,0,0,1,.743,1.585,9.643,9.643,0,0,1-.6,1.779c-.395.993-.882,1.951-1.222,2.957a3.551,3.551,0,0,0,1.109,4.328,2.026,2.026,0,0,1,.853,1.765c-.064,1.452-.067,2.912-.267,4.345a4.878,4.878,0,0,0,.119,2.856,3.776,3.776,0,0,1,.258,2.557,3.577,3.577,0,0,0,.569,2.911,4.344,4.344,0,0,1,.705,2.63c-.017.874,0,1.751,0,2.627h-.04c0,1.021-.032,2.046.009,3.068a4.867,4.867,0,0,0,1.219,3.346,1.715,1.715,0,0,0,2.929-.287,2.726,2.726,0,0,0,.426-1.077,18.912,18.912,0,0,0,.244-3.471,14.131,14.131,0,0,1,1.425-7.924,10.528,10.528,0,0,0,.47-1.376,6.321,6.321,0,0,0-.441-5.48l-.136-.259a2.62,2.62,0,0,1,.122-2.769c.467-.737.819-1.553,1.309-2.276a3.3,3.3,0,0,0-1.21-4.992,3.019,3.019,0,0,1-1.539-2.88" transform="translate(-79.201 -57.622)" fill="#fff"/>
  <path id="Path_11" data-name="Path 11" d="M150.228,77.668a3.8,3.8,0,0,0,3.825.772,3.359,3.359,0,0,0,2.191-3.169,35.535,35.535,0,0,1,.911-5.889c.514-2.1-.763-3.393-3.1-3.068.125-.7.252-1.259.317-1.825.2-1.678-1.033-3.239-2.5-3.071a4.529,4.529,0,0,0-2.958,1.422,3.071,3.071,0,0,0-.47,3.637,2.309,2.309,0,0,1-.035,2.688,16.259,16.259,0,0,0-1.3,2.92,3.391,3.391,0,0,0,.9,3.742c.717.64,1.477,1.235,2.221,1.842" transform="translate(-78.614 -32.861)" fill="#fff"/>
  <path id="Path_12" data-name="Path 12" d="M865.191,262.631v.279h-.8v2.1h-.325v-2.1h-.8v-.279" transform="translate(-461.974 -140.548)" fill="#fff"/>
  <path id="Path_13" data-name="Path 13" d="M867.892,262.631h.458l.688,2.006.682-2.006h.456v2.375h-.3v-1.39l0-.256V263l-.682,2h-.317l-.7-2v.07l.017.267v1.666h-.3" transform="translate(-464.454 -140.548)" fill="#fff"/>
</svg>
