<?xml version="1.0" encoding="utf-8"?>
<!-- Generator: Adobe Illustrator 26.4.1, SVG Export Plug-In . SVG Version: 6.00 Build 0)  -->
<svg version="1.1" id="Layer_1" xmlns="http://www.w3.org/2000/svg" xmlns:xlink="http://www.w3.org/1999/xlink" x="0px" y="0px"
	 viewBox="0 0 82 80.5" style="enable-background:new 0 0 82 80.5;" xml:space="preserve">
<style type="text/css">
	.st0{fill:#FFFFFF;}
</style>
<path id="icons8-rick-sanchez" class="st0" d="M27.1,0c-0.5,0-0.9,0.1-1.4,0.3c-0.6,0.2-1.1,0.8-1.1,1.5c0,4.7-0.5,9.3-1.3,13.9
	L8.5,12.9c-0.9-0.2-1.7,0.4-1.9,1.3c0,0.1,0,0.2,0,0.3C6.4,20.7,8.9,26.7,13.4,31c-1,0.2-2,0.4-3,0.8c-3.2,1-7.1,2.6-9.9,5.3
	c-0.7,0.6-0.7,1.7,0,2.3c0.1,0.1,0.1,0.1,0.2,0.2c2.7,1.9,5.6,3.5,8.7,4.7c1.1,0.4,2,1.1,2.8,1.9c-2.6,2.3-5.3,4.5-8.2,6.5
	c-0.8,0.5-1,1.5-0.5,2.3c0.2,0.3,0.6,0.6,0.9,0.7l10.1,2.8c-0.3,3.5-1.3,6.8-3,9.8c-0.4,0.8-0.1,1.8,0.7,2.2
	c0.2,0.1,0.5,0.2,0.7,0.2c3.4-0.1,6.7-0.6,9.9-1.6c3.8,6.8,10.4,11.4,18,11.4c7.6,0,14.2-4.6,18-11.4c2.6,1,5.5,1.5,8.3,1.5
	c0.9,0,1.6-0.7,1.6-1.6c0-0.2,0-0.4-0.1-0.5c-0.9-3.3-1.4-6.6-1.5-10c0.9-0.2,2.2-0.5,4.4-1.2c1.4-0.4,2.8-1,4.1-1.6
	c0.6-0.3,1.1-0.6,1.7-1c0.6-0.4,1-1,1.2-1.7c0.1-0.7-0.1-1.4-0.7-1.7c-2.5-1.6-4.8-3.7-6.6-6.1c4.8-2.2,8.5-6.1,10.5-10.9
	c0.3-0.8-0.1-1.8-0.9-2.1c-0.2-0.1-0.4-0.1-0.6-0.1c-4.2,0-8.4-0.4-12.6-1.2c0.8-2.4,3.4-10.1,7.3-15.2c0.6-0.7,0.4-1.7-0.3-2.3
	c-0.2-0.2-0.4-0.3-0.7-0.3c-5.3-0.9-10.7-0.1-15.4,2.5c-0.8-4.5-1.3-9-1.3-13.5c0-0.7-0.4-1.3-1.1-1.5c-1.9-0.7-3.7,0-5.5,0.9
	c-1.8,1-3.6,2.2-5.2,3.5C44,6.1,42.5,7.5,41,9.1c-1.5-1.6-3-3-4.7-4.4c-1.6-1.4-3.3-2.5-5.2-3.5c-0.8-0.5-1.8-0.8-2.7-1
	C28,0,27.5,0,27.1,0z M27.7,3.6c0.7,0,1.3,0.2,1.9,0.5c1.6,0.9,3.2,2,4.6,3.2c2,1.6,3.8,3.4,5.6,5.2c0.6,0.7,1.7,0.7,2.3,0.1
	c0,0,0.1-0.1,0.1-0.1c1.8-1.8,3.6-3.6,5.6-5.2c1.4-1.2,3-2.3,4.6-3.2c0.6-0.3,1.2-0.5,1.9-0.5c0.2,4.8,0.7,9.6,1.5,14.4
	c0.2,0.9,1.1,1.5,1.9,1.3c0.2,0,0.3-0.1,0.5-0.2c3.9-1.9,8.3-3,12.7-3c-2.9,4.9-5.2,10-6.9,15.4c-0.3,0.9,0.2,1.8,1.1,2
	c0,0,0.1,0,0.1,0c4.1,0.7,8.2,1.2,12.3,1.4c-2.3,3.5-5.5,6.3-9.3,8.1c-0.8,0.3-1.3,1.3-0.9,2.1c0,0.1,0.1,0.2,0.2,0.3
	c2.1,2.6,4.5,4.9,7.1,7c-0.1,0.1-0.1,0.1-0.2,0.1c-1.2,0.6-2.4,1-3.7,1.4c-2.7,0.9-5.4,1.6-5.4,1.6c-0.7,0.2-1.3,0.8-1.3,1.6
	c0.1,3.3,0.6,6.6,1.3,9.9c-1.6-0.2-3.3-0.5-4.8-1c1.3-3.2,1.9-6.7,1.9-10.2V41.2c0-13.4-9.4-24.6-21.3-24.6S19.7,27.7,19.7,41.2
	v14.8c0,3.5,0.6,6.9,1.9,10.1c-2,0.5-4,0.9-6.1,1.1c1.3-3.2,2.1-6.5,2.5-9.9c0-0.7-0.5-1.4-1.2-1.6l-8.2-2.3c2.5-1.9,5-3.9,7.2-6.1
	c0.5-0.5,0.6-1.3,0.3-1.9c-1.1-2.2-3.2-3.1-5.5-4.1c-2-1-4-2-5.9-3.2c2-1.4,4.3-2.5,6.6-3.2c1.7-0.6,3.5-1,5.3-1.3
	c0.9-0.1,1.5-1,1.4-1.9c-0.1-0.4-0.3-0.8-0.6-1c-4-3.7-6.6-8.7-7.2-14.1l14.1,2.7c0.9,0.2,1.7-0.4,1.9-1.3
	C27,13.2,27.6,8.4,27.7,3.6L27.7,3.6z M41,19.9c9.8,0,18,9.4,18,21.3v14.8c0,11.9-8.2,21.3-18,21.3s-18-9.4-18-21.3V41.2
	C23,29.3,31.2,19.9,41,19.9z M27.8,33c-0.9,0-1.6,0.7-1.6,1.6c0,0.7,0.5,1.3,1.1,1.6c1.1,0.3,2.1,0.6,3.2,0.8
	c-3.7,1.7-5.4,6.1-3.7,9.8c1.7,3.7,6.1,5.4,9.8,3.7c3.7-1.7,5.4-6.1,3.7-9.8c-0.5-1.1-1.3-2.1-2.2-2.8c0.9,0,1.9,0.1,2.9,0.1
	s2,0,2.9-0.1c-3.2,2.5-3.8,7.1-1.3,10.3c2.5,3.2,7.1,3.8,10.3,1.3c3.2-2.5,3.8-7.1,1.3-10.3c-0.7-0.9-1.7-1.7-2.8-2.2
	c1.1-0.2,2.2-0.5,3.2-0.8c0.8-0.3,1.3-1.3,1-2.1s-1.3-1.3-2.1-1c0,0-4,1.5-12.5,1.5s-12.5-1.5-12.5-1.5C28.3,33,28,33,27.8,33
	L27.8,33z M33.6,39.5c2.3,0,4.1,1.8,4.1,4.1c0,2.3-1.8,4.1-4.1,4.1s-4.1-1.8-4.1-4.1l0,0C29.5,41.4,31.3,39.6,33.6,39.5
	C33.6,39.5,33.6,39.5,33.6,39.5L33.6,39.5z M48.4,39.5c2.3,0,4.1,1.8,4.1,4.1s-1.8,4.1-4.1,4.1c-2.3,0-4.1-1.8-4.1-4.1v0
	C44.3,41.4,46.1,39.6,48.4,39.5C48.3,39.5,48.4,39.5,48.4,39.5L48.4,39.5z M49.2,41.2c-0.9,0-1.6,0.7-1.6,1.6s0.7,1.6,1.6,1.6
	s1.6-0.7,1.6-1.6l0,0C50.8,41.9,50.1,41.2,49.2,41.2L49.2,41.2z M32.8,42.8c-0.9,0-1.6,0.7-1.6,1.6c0,0.9,0.7,1.6,1.6,1.6
	c0.9,0,1.6-0.7,1.6-1.6l0,0C34.4,43.6,33.7,42.8,32.8,42.8z M42.6,51c-0.9,0-1.6,0.8-1.6,1.7v4.5c0,0.1,0,0.2,0,0.3
	c-0.1,0,0,0-0.1-0.1c-0.7-0.4-1.4-0.9-2-1.4c-0.7-0.6-1.7-0.6-2.3,0.1s-0.6,1.7,0.1,2.3c0.9,0.8,1.8,1.5,2.9,2
	c0.9,0.5,2.1,0.6,3.1,0.2c0.6-0.3,1.1-0.8,1.4-1.5c0.3-0.6,0.4-1.3,0.3-2v-4.5C44.3,51.8,43.6,51,42.6,51C42.6,51,42.6,51,42.6,51z
	 M41,62.5c-4.1,0-8.1,0.6-12,1.7c-0.9,0.3-1.3,1.2-1.1,2.1c0.3,0.9,1.2,1.3,2.1,1.1c0,0,0,0,0.1,0c0,0,0.5-0.2,1.3-0.3
	c0.1,0.4,0.2,0.7,0.3,1.1c0.6,1,1.5,1.8,2.6,2.2c0,0.4,0.1,0.8,0.2,1.1c1,2.2,3.6,3.2,5.8,2.3c1-0.4,1.8-1.2,2.3-2.3
	c0.1-0.3,0.2-0.7,0.2-1c0.4-0.1,0.4,0,0.9-0.2c1.4-0.9,2.2-2.4,2.2-4c2.1,0.2,4.1,0.7,6.1,1.2c0.9,0.3,1.8-0.2,2.1-1s-0.2-1.8-1-2.1
	c0,0,0,0,0,0C49.1,63.1,45.1,62.5,41,62.5z M41,65.8c0.6,0,1.1,0,1.6,0c0,1.1-0.3,1.2-0.6,1.4c-0.2,0.1-0.4,0.2-0.6,0.2
	c-0.9,0-1.6,0.7-1.6,1.6c0,0.3-0.1,0.7-0.2,1c-0.2,0.5-0.2,0.7-1,0.7s-0.8-0.2-1-0.7c-0.1-0.3-0.2-0.6-0.2-1c0-0.9-0.7-1.6-1.6-1.6
	c-0.8,0-0.8-0.2-1-0.7c-0.1-0.1-0.1-0.3-0.1-0.4C36.7,66,38.8,65.8,41,65.8z"/>
</svg>
